<?xml version="1.0" encoding="iso-8859-1"?>
<!-- Generator: Adobe Illustrator 19.0.0, SVG Export Plug-In . SVG Version: 6.00 Build 0)  -->
<svg version="1.1" id="Layer_1" xmlns="http://www.w3.org/2000/svg" xmlns:xlink="http://www.w3.org/1999/xlink" x="0px" y="0px"
	 viewBox="0 0 503.91 503.91" style="enable-background:new 0 0 503.91 503.91;" xml:space="preserve">
<g>
	<g>
		<path d="M495.352,7.908c-0.218-3.693-2.82-6.807-6.413-7.672c-3.626-0.856-7.336,0.722-9.208,3.903
			c-0.445,0.755-45.618,76.548-101.703,91.094c-2.627,0.68-4.759,2.594-5.733,5.12c-0.285,0.755-29.805,76.263-110.861,157.318
			l-9.485,9.476l-9.485-9.476c-81.055-81.055-110.575-156.563-110.861-157.318c-0.965-2.535-3.106-4.44-5.733-5.12
			C69.897,80.721,24.615,4.895,24.161,4.131c-1.872-3.173-5.615-4.767-9.199-3.895C11.378,1.11,8.768,4.215,8.558,7.908
			c-0.185,3.198-4.23,79.142,25.894,146.6c3.525,7.898,16.292,12.33,38.014,13.22c-7.982,24.979-5.666,27.766-3.223,30.695
			c4.633,5.565,85.21,90.985,130.166,115.536c1.234,0.68,2.442,1.385,3.676,2.065l-32.651,32.642
			c-1.049-2.913-1.897-5.892-2.459-8.973c-2.09-11.474-12.254-19.968-24.19-20.195c-7.839,0.017-14.89,3.131-19.842,8.973
			c-4.809,5.649-6.807,13.027-5.481,20.237c2.468,13.438,7.378,26.104,14.437,37.502L82.11,436.99
			c-7.823,0.529-15.503,3.634-21.47,9.602c-13.085,13.094-13.085,34.396,0,47.482c6.345,6.345,14.772,9.837,23.745,9.837
			c8.964,0,17.4-3.492,23.737-9.837c5.8-5.8,9.073-13.379,9.619-21.487l50.948-50.948c10.802,6.539,22.696,11.163,35.261,13.547
			c1.628,0.311,3.265,0.462,4.885,0.462c6.052,0,11.902-2.132,16.577-6.127c5.8-4.969,8.989-12.196,8.746-19.834
			c-0.378-11.801-8.981-21.831-20.446-23.854c-2.107-0.378-4.155-0.982-6.194-1.603c15.637-13.925,30.905-26.087,44.376-36.134
			c15.746,11.734,30.628,23.837,44.452,36.151c-2.031,0.613-4.054,1.217-6.152,1.586c-11.465,2.023-20.06,12.053-20.438,23.854
			c-0.252,7.638,2.938,14.865,8.738,19.834c4.675,3.995,10.525,6.127,16.577,6.127c1.62,0,3.257-0.151,4.885-0.462
			c12.573-2.392,24.467-7.009,35.261-13.547l50.957,50.948c0.537,8.108,3.811,15.687,9.61,21.487
			c6.345,6.345,14.772,9.837,23.737,9.837c8.973,0,17.408-3.492,23.745-9.837c13.094-13.085,13.094-34.388,0-47.482
			c-5.968-5.968-13.648-9.073-21.47-9.602l-50.78-50.78c7.059-11.398,11.969-24.064,14.428-37.502
			c1.326-7.21-0.672-14.588-5.473-20.237c-4.961-5.842-12.036-8.973-19.892-8.973c-11.893,0.227-22.05,8.721-24.148,20.195
			c-0.562,3.08-1.41,6.06-2.459,8.973l-32.65-32.642c1.217-0.671,2.476-1.41,3.676-2.065
			c44.955-24.551,125.532-109.971,130.174-115.536c2.434-2.929,4.759-5.716-3.232-30.695c21.714-0.89,34.489-5.321,38.014-13.22
			C499.583,87.05,495.537,11.106,495.352,7.908z M113.291,453.298c-0.101-0.168-0.26-0.294-0.361-0.462
			c-1.368-2.224-2.913-4.348-4.809-6.245v-0.008c-0.025-0.025-0.059-0.042-0.092-0.067c-1.888-1.872-3.978-3.408-6.161-4.742
			c-0.159-0.101-0.285-0.252-0.453-0.344l41.321-41.321l5.573,5.573c0.017,0.017,0.034,0.042,0.05,0.059
			c0.017,0.008,0.495,0.487,0.512,0.504l5.733,5.733L113.291,453.298z M402.487,441.43c-0.159,0.092-0.285,0.243-0.453,0.344
			c-2.182,1.335-4.272,2.871-6.161,4.742c-0.025,0.025-0.067,0.042-0.092,0.067v0.008c-1.888,1.897-3.441,4.021-4.809,6.245
			c-0.101,0.168-0.26,0.294-0.352,0.462l-41.321-41.321l5.892-5.892c0.159-0.159,0.336-0.327,0.352-0.344s0.034-0.042,0.05-0.059
			l5.573-5.573L402.487,441.43z M315.666,394.107c0.034-0.025,0.084-0.034,0.126-0.05c0.336-0.193,0.621-0.436,0.957-0.63
			c2.451-1.444,4.868-2.929,7.16-4.667c2.728-2.023,5.288-4.188,7.646-6.522c2.258-2.3,4.356-4.809,6.371-7.495
			c1.612-2.107,3.013-4.306,4.39-6.522c0.227-0.369,0.47-0.663,0.697-1.032c0.034-0.067,0.042-0.143,0.076-0.201
			c4.516-7.596,7.798-15.738,9.359-24.282c0.663-3.643,4.004-6.345,7.991-6.421h0.168c2.535,0,4.919,1.108,6.572,3.047
			c0.898,1.058,2.317,3.29,1.763,6.337c-3.324,18.088-12.28,35.185-25.214,48.145l-0.478,0.478h-0.008
			c-12.792,12.624-28.84,21.068-46.424,24.4c-2.677,0.504-5.38-0.193-7.403-1.93c-1.125-0.957-2.988-3.08-2.879-6.538
			c0.117-3.903,2.887-7.21,6.58-7.865C301.069,400.957,308.624,398.086,315.666,394.107z M454.485,146.845
			c-3.869,2.426-19.893,4.39-34.556,4.239c-2.871-0.185-5.321,1.267-6.916,3.492c-1.603,2.216-2.023,5.078-1.116,7.663
			c3.475,9.988,7.168,22.293,8.058,27.463c-12.808,13.95-84.211,88.064-123.51,109.526c-5.422,2.963-11.356,6.278-17.358,9.862
			c-0.915,0.546-1.788,1.074-2.652,1.603c-1.024,0.621-2.04,1.234-3.055,1.88c-2.35,1.469-4.549,2.896-6.614,4.306
			c-0.067,0.042-0.134,0.076-0.193,0.117c-18.826,12.808-46.76,33.238-75.298,59.241c-2.552-1.788-4.851-3.693-6.933-5.741
			c-1.931-1.972-3.744-4.13-5.481-6.513l43.914-43.914l35.11-35.11l15.419-15.419c74.039-74.039,105.825-142.177,113.06-159.224
			c40.095-12.254,73.443-49.53,92.017-74.349C477.072,63.33,472.036,107.11,454.485,146.845z"/>
	</g>
</g>
<g>
</g>
<g>
</g>
<g>
</g>
<g>
</g>
<g>
</g>
<g>
</g>
<g>
</g>
<g>
</g>
<g>
</g>
<g>
</g>
<g>
</g>
<g>
</g>
<g>
</g>
<g>
</g>
<g>
</g>
</svg>
