<?xml version="1.0" encoding="UTF-8" standalone="no"?>
<svg
   xmlns:dc="http://purl.org/dc/elements/1.1/"
   xmlns:cc="http://creativecommons.org/ns#"
   xmlns:rdf="http://www.w3.org/1999/02/22-rdf-syntax-ns#"
   xmlns:svg="http://www.w3.org/2000/svg"
   xmlns="http://www.w3.org/2000/svg"
   xmlns:sodipodi="http://sodipodi.sourceforge.net/DTD/sodipodi-0.dtd"
   xmlns:inkscape="http://www.inkscape.org/namespaces/inkscape"
   version="1.1"
   viewBox="0 -205 1094 1024"
   id="svg6"
   sodipodi:docname="ring_LOTR_TCG-Regular.svg"
   inkscape:version="0.92.5 (2060ec1f9f, 2020-04-08)">
  <metadata
     id="metadata12">
    <rdf:RDF>
      <cc:Work
         rdf:about="">
        <dc:format>image/svg+xml</dc:format>
        <dc:type
           rdf:resource="http://purl.org/dc/dcmitype/StillImage" />
      </cc:Work>
    </rdf:RDF>
  </metadata>
  <defs
     id="defs10" />
  <sodipodi:namedview
     pagecolor="#ffffff"
     bordercolor="#666666"
     borderopacity="1"
     objecttolerance="10"
     gridtolerance="10"
     guidetolerance="10"
     inkscape:pageopacity="0"
     inkscape:pageshadow="2"
     inkscape:window-width="640"
     inkscape:window-height="480"
     id="namedview8"
     showgrid="false"
     inkscape:zoom="0.61425781"
     inkscape:cx="107.44515"
     inkscape:cy="512"
     inkscape:current-layer="svg6" />
  <g
     transform="matrix(1,0,0,-1,0,729)"
     id="g4">
    <path
       d="M 539,865 V 854 Q 735,854 871.5,742.5 1008,631 1008,473 1008,322 876,214 741,104 547,104 354,104 217,213.5 80,323 80,473 80,632 212.5,743 345,854 539,854 v 11 Q 337,865 187.5,733.5 38,602 38,422 38,243 188.5,113 339,-17 547,-17 751,-17 900.5,113 1050,243 1050,422 1050,608 911,734 766,865 539,865 Z M 128,454 q 0,120 124,210 124,90 295,90 166,0 289.5,-90 Q 960,574 960,454 q 0,-24 -22,-89 33,57 33,119 0,142 -124.5,240.5 Q 722,823 547,823 368,823 243,724.5 118,626 118,484 q 0,-33 21,-90 0,10 -5.5,29.5 Q 128,443 128,454 Z"
       id="path2"
       inkscape:connector-curvature="0"
       style="fill:currentColor" />
  </g>
</svg>
