<?xml version="1.0" standalone="no"?>
<!DOCTYPE svg PUBLIC "-//W3C//DTD SVG 1.1//EN" "http://www.w3.org/Graphics/SVG/1.1/DTD/svg11.dtd" >
<svg xmlns="http://www.w3.org/2000/svg" xmlns:xlink="http://www.w3.org/1999/xlink" version="1.1" viewBox="0 -205 1933 1024">
  <g transform="matrix(1 0 0 -1 0 819)">
   <path fill="currentColor"
d="M908 402l35 13q-43 0 -78.5 -4t-49.5 -8l-13 -4q-40 -12 -81 -35t-57 -41q-2 -2 6.5 -14.5t23.5 -27.5t27 -23q2 -1 15.5 -10t20 -13.5t21.5 -12.5t26.5 -12.5t27 -9t29.5 -5.5q59 -8 93 -9zM1147 374q-4 6 -11.5 10t-12.5 5h-5q-19 1 -118 -25l-25 -179q48 2 92.5 13
t65.5 20l19 9q46 24 90.5 57t52.5 45l9 10l-68 49l70 -20q44 -15 250 -128l13 13q-39 24 -86.5 48.5t-75.5 36.5l-28 13q-66 34 -141 59t-112 31q-10 1 -48.5 8t-57 9t-51 5t-60.5 2.5t-56 -3.5q-7 -1 -39 -4.5t-42.5 -5.5t-39.5 -7t-47 -10.5t-47 -14t-58.5 -20.5
t-63.5 -27q-73 -34 -129.5 -69.5t-78 -54t-24.5 -25.5q-8 -24 6 -29t27 -11q-19 2 -35.5 6.5t-23.5 6.5l-7 3q-48 23 -94 58q-17 15 -66 50l-17 -3q2 4 2 9t-2 10l-1 3q-6 13 -10 23l51 -23l126 98q20 16 53 36.5t39 22.5q5 3 61 -5q-6 -8 -8 -16.5t-1 -13.5l1 -5
q6 -16 14 -33q-11 0 -19 1.5t-11 3.5l-2 1q-9 7 -25 29q-49 -32 -77.5 -52t-33.5 -25l-3 -4q-2 -8 19.5 -25.5t34.5 -18.5q8 -1 39.5 15t73.5 39.5t56 30.5q117 58 173 74q43 14 119.5 31.5t124.5 16.5q165 0 296 -31q95 -24 150.5 -39.5t163.5 -56t221 -95.5l43 24
q-18 23 -33.5 38.5l-20.5 20.5l-7 4q-5 3 -11 8q-6 4 -10 2l-1 -1q-9 -4 -36 -25l-2 22q13 15 26 26.5t20 14.5l6 4q17 8 24 9.5t17 -3.5q5 -2 56 -46.5t58 -45.5q17 -4 26 0q10 3 21 6l16 -16l-7 -8q0 3 -3 4t-5 0h-3q-7 -1 -65.5 -28t-87.5 -42q-77 -38 -110 -62l-68 -50
l-37 6l-1 8l29 20q9 13 9 18q0 15 -82 60q-44 24 -76 32q-27 8 -44 -6q-3 -2 -42.5 -37.5t-51.5 -46.5q-19 -17 -69.5 -50t-83.5 -45q-134 -52 -237 -30q-120 26 -183 61q-40 23 -93 72q-14 15 -44 60l-56 16q15 13 31.5 25t25.5 17l9 5q57 31 150 59q129 36 185 38
q119 5 161 -4q82 -19 94 -33q11 -16 11 -33z" />
  </g>

</svg>
